# xmcd CD database file
#
# Track frame offsets:
#	150
#	19193
#	41757
#	74271
#	98610
#	151609
#	166160
#
# Disc length: 2703 seconds
#
# Revision: 0
# Processed by: cddbd v1.5.2PL0 Copyright (c) Steve Scherf et al.
# Submitted via: CDex 1.51
#
DISCID=480a8d07
DTITLE=Larry Carlton - Mr. 335 Live in Japan
DYEAR=1979
DGENRE=Jazz
TTITLE0=I`m A Fool
TTITLE1=Mellow Out
TTITLE2=Tight Squeeze 
TTITLE3=I´m Home
TTITLE4=Rio Samba
TTITLE5=(It was) Only Yesterday 
TTITLE6=Point It Up
EXTD=YEAR: 1979
EXTT0=
EXTT1=
EXTT2=
EXTT3=
EXTT4=
EXTT5=
EXTT6=
PLAYORDER=
